<?xml version="1.0" encoding="utf-8"?>
<!-- Generator: Adobe Illustrator 23.0.1, SVG Export Plug-In . SVG Version: 6.00 Build 0)  -->
<svg version="1.1" id="Layer_1" xmlns="http://www.w3.org/2000/svg" xmlns:xlink="http://www.w3.org/1999/xlink" x="0px" y="0px"
	 viewBox="0 0 2000 500" style="enable-background:new 0 0 2000 500;" xml:space="preserve">
<style type="text/css">
	.st0{fill:#39DDD2;}
	.st1{fill:#FEC96B;}
	.st2{fill:#A0E557;}
	.st3{fill:#FF5D5D;}
</style>
<g>
	<g>
		<path d="M531.9,327h-11.5v-3.8h3.7l-1.9-5.2h-12.6l-2.1,5.2h4.1v3.8h-11.4v-3.8h2.9l9.8-23.6h-4.8v-3.8h9.4l11.2,27.4h3.1V327z
			 M520.9,314.8l-4.8-12.7h-0.3l-5,12.7H520.9z"/>
		<path d="M569.9,327h-6.8l-6.6-12.7h-6v8.9h3.9v3.8h-12.1v-3.8h3.8v-23.6h-3.8v-3.8h13.7c3.9,0,6.7,0.8,8.5,2.5
			c1.8,1.6,2.7,3.8,2.7,6.6c0,2-0.6,3.8-1.7,5.4c-1.1,1.5-2.7,2.6-4.8,3.2l5.2,9.8h3.9V327z M562.7,304.9c0-1.9-0.6-3.2-1.7-4.1
			c-1.1-0.8-3-1.2-5.5-1.2h-4.8v11.1h4.9c2.6,0,4.5-0.5,5.5-1.5C562.2,308.2,562.7,306.7,562.7,304.9z"/>
		<path d="M591.2,320.7c-0.2,1.9-1.1,3.5-2.7,4.8s-3.8,2-6.5,2c-3.1,0-5.6-0.9-7.5-2.8c-1.9-1.9-2.9-4.5-2.9-8.1
			c0-3.3,0.9-6.1,2.7-8.3c1.8-2.2,4.3-3.3,7.4-3.3c2.9,0,5.2,0.9,6.9,2.7c1.6,1.8,2.5,4,2.5,6.6c0,0.9-0.1,1.8-0.3,2.7H576
			c0.2,4.5,2.3,6.8,6.3,6.8c1.7,0,2.9-0.4,3.8-1.2c0.8-0.8,1.4-1.8,1.7-2.9L591.2,320.7z M586.7,314.4c0.1-1.4-0.2-2.8-1-4.1
			s-2.2-1.9-4.1-1.9c-1.8,0-3.1,0.6-4,1.8c-0.9,1.2-1.4,2.6-1.6,4.2H586.7z"/>
		<path d="M617.8,315.7c0,2.9-0.8,5.6-2.4,8.1c-1.6,2.4-4.1,3.7-7.5,3.7c-3.2,0-5.5-1.2-6.9-3.5v9.9h4.7v3.4h-12.3v-3.4h3.5v-25
			h-3.6v-3.3h7.8v4.4c0.6-1.3,1.6-2.4,2.7-3.4c1.2-1,2.8-1.4,4.8-1.4c2.8,0,5,0.9,6.7,2.8C617,309.8,617.8,312.4,617.8,315.7z
			 M613.4,316.1c0-2.5-0.6-4.3-1.7-5.6c-1.1-1.3-2.6-1.9-4.4-1.9c-1.8,0-3.3,0.7-4.4,2.2c-1.1,1.4-1.7,3-1.8,4.7l0,2.5
			c0,1.8,0.6,3.3,1.7,4.4s2.6,1.7,4.3,1.7c2.1,0,3.7-0.8,4.8-2.3C612.9,320.2,613.4,318.3,613.4,316.1z"/>
		<path d="M642.7,316.3c0,3.3-1,6-3,8.1c-2,2.1-4.7,3.1-8,3.1c-3.3,0-5.8-1-7.8-3c-1.9-2-2.9-4.7-2.9-8c0-3.1,0.9-5.8,2.7-8.1
			c1.8-2.2,4.5-3.4,8.2-3.4c3.6,0,6.3,1.1,8.1,3.3C641.8,310.6,642.7,313.3,642.7,316.3z M638.2,316.2c0-2.4-0.6-4.2-1.8-5.6
			c-1.2-1.4-2.7-2.1-4.7-2.1c-2.1,0-3.7,0.7-4.8,2.2s-1.7,3.3-1.7,5.6c0,2.2,0.5,4,1.6,5.5c1.1,1.5,2.7,2.3,4.8,2.3
			c2.1,0,3.7-0.7,4.8-2.2C637.7,320.4,638.2,318.5,638.2,316.2z"/>
		<path d="M658.3,305.2c1.5,0,2.8,0.4,3.8,1.2l0.9,6l-3.3,0.4l-0.8-3.7c-0.5-0.2-1.1-0.3-1.7-0.3c-1.1,0-2,0.5-2.7,1.4
			c-0.7,0.9-1.1,2.1-1.1,3.6v10.1h4.6v3.3h-12.3v-3.3h3.5v-14.9h-3.6v-3.3h7.5v3.9c0.4-1.2,1.1-2.2,1.9-3
			C655.8,305.6,656.9,305.2,658.3,305.2z"/>
		<path d="M682.8,321c-0.6,4.4-3,6.5-7.2,6.5c-2.2,0-3.9-0.6-5.2-1.8c-1.2-1.2-1.8-2.9-1.8-5v-11.9h-3.3v-3.2h3.3v-6.8h4.2v6.8h8.2
			v3.2h-8.2V320c0,2.6,1.1,3.8,3.3,3.8c0.7,0,1.4-0.2,2.1-0.7c0.7-0.5,1.2-1.5,1.5-3.2L682.8,321z"/>
		<path d="M716.4,316.3c0,3.3-1,6-3,8.1c-2,2.1-4.7,3.1-8,3.1c-3.3,0-5.8-1-7.8-3c-1.9-2-2.9-4.7-2.9-8c0-3.1,0.9-5.8,2.7-8.1
			c1.8-2.2,4.5-3.4,8.2-3.4c3.6,0,6.3,1.1,8.1,3.3C715.5,310.6,716.4,313.3,716.4,316.3z M712,316.2c0-2.4-0.6-4.2-1.8-5.6
			c-1.2-1.4-2.7-2.1-4.7-2.1c-2.1,0-3.7,0.7-4.8,2.2s-1.7,3.3-1.7,5.6c0,2.2,0.5,4,1.6,5.5c1.1,1.5,2.7,2.3,4.8,2.3
			c2.1,0,3.7-0.7,4.8-2.2C711.4,320.4,712,318.5,712,316.2z"/>
		<path d="M730.5,293.5c1,0,1.9,0.1,2.9,0.3c0.9,0.2,1.8,0.7,2.6,1.3l0.9,5.2l-3.4,0.4l-0.9-3.6c-0.7-0.2-1.4-0.3-2.3-0.3
			c-2.3,0-3.4,1.5-3.4,4.4v4.3h5.5v3.2h-5.5v15h4.5v3.3h-12.2v-3.3h3.5v-15h-3v-3.2h3v-3.8c0-2.4,0.7-4.4,2.2-6
			C726.4,294.3,728.3,293.5,730.5,293.5z"/>
		<path d="M778.6,299.6h-3.7V327h-2.6l-17.7-23.2h-0.2v19.4h4.8v3.8h-12.4v-3.8h3.6v-23.6h-4v-3.8h7.2l17.2,22.5h0.2v-18.7h-4.7
			v-3.8h12.5V299.6z"/>
		<path d="M800.2,320.7c-0.2,1.9-1.1,3.5-2.7,4.8s-3.8,2-6.5,2c-3.1,0-5.6-0.9-7.5-2.8c-1.9-1.9-2.9-4.5-2.9-8.1
			c0-3.3,0.9-6.1,2.7-8.3c1.8-2.2,4.3-3.3,7.4-3.3c2.9,0,5.2,0.9,6.9,2.7c1.6,1.8,2.5,4,2.5,6.6c0,0.9-0.1,1.8-0.3,2.7H785
			c0.2,4.5,2.3,6.8,6.3,6.8c1.7,0,2.9-0.4,3.8-1.2c0.8-0.8,1.4-1.8,1.7-2.9L800.2,320.7z M795.7,314.4c0.1-1.4-0.2-2.8-1-4.1
			s-2.2-1.9-4.1-1.9c-1.8,0-3.1,0.6-4,1.8c-0.9,1.2-1.4,2.6-1.6,4.2H795.7z"/>
		<path d="M819.9,321c-0.6,4.4-3,6.5-7.2,6.5c-2.2,0-3.9-0.6-5.2-1.8c-1.2-1.2-1.8-2.9-1.8-5v-11.9h-3.3v-3.2h3.3v-6.8h4.2v6.8h8.2
			v3.2h-8.2V320c0,2.6,1.1,3.8,3.3,3.8c0.7,0,1.4-0.2,2.1-0.7c0.7-0.5,1.2-1.5,1.5-3.2L819.9,321z"/>
		<path d="M856,308.9h-2.3l-6.2,18.1h-3.2l-6.2-15.3h-0.2l-6,15.3h-3l-6.4-18.1h-2.2v-3.3h10.5v3.3h-3.7l3.9,12h0.2l6-15.3h2.7
			l6.4,15.3h0.3l3.3-12h-3.6v-3.3h9.8V308.9z"/>
		<path d="M879.1,316.3c0,3.3-1,6-3,8.1c-2,2.1-4.7,3.1-8,3.1c-3.3,0-5.8-1-7.8-3c-1.9-2-2.9-4.7-2.9-8c0-3.1,0.9-5.8,2.7-8.1
			c1.8-2.2,4.5-3.4,8.2-3.4c3.6,0,6.3,1.1,8.1,3.3C878.2,310.6,879.1,313.3,879.1,316.3z M874.6,316.2c0-2.4-0.6-4.2-1.8-5.6
			c-1.2-1.4-2.7-2.1-4.7-2.1c-2.1,0-3.7,0.7-4.8,2.2s-1.7,3.3-1.7,5.6c0,2.2,0.5,4,1.6,5.5c1.1,1.5,2.7,2.3,4.8,2.3
			c2.1,0,3.7-0.7,4.8-2.2C874.1,320.4,874.6,318.5,874.6,316.2z"/>
		<path d="M894.7,305.2c1.5,0,2.8,0.4,3.8,1.2l0.9,6l-3.3,0.4l-0.8-3.7c-0.5-0.2-1.1-0.3-1.7-0.3c-1.1,0-2,0.5-2.7,1.4
			c-0.7,0.9-1.1,2.1-1.1,3.6v10.1h4.6v3.3H882v-3.3h3.5v-14.9h-3.6v-3.3h7.5v3.9c0.4-1.2,1.1-2.2,1.9-3
			C892.2,305.6,893.3,305.2,894.7,305.2z"/>
		<path d="M925.6,327h-10.4v-3.3h2.9l-5.2-6.4h-3.6v6.4h2.8v3.3h-10.4v-3.3h3.5v-26.4h-3.6V294h7.8v20.3h3.8l4.4-5.4h-3.1v-3.3h10.2
			v3.3h-3l-5.4,6.5l6.8,8.4h2.7V327z"/>
		<path d="M963.1,305.5c0,3.4-1,5.9-3.1,7.6c-2.1,1.7-4.6,2.6-7.7,2.6h-5.7v7.5h5.2v3.8h-13.3v-3.8h3.8v-23.6h-3.8v-3.8H952
			c3.9,0,6.7,0.9,8.4,2.8C962.2,300.5,963.1,302.8,963.1,305.5z M958.4,305.6c0-1.9-0.5-3.3-1.6-4.4c-1.1-1.1-2.8-1.6-5.3-1.6h-4.9
			V312h5C956.2,312,958.4,309.8,958.4,305.6z"/>
		<path d="M978.4,305.2c1.5,0,2.8,0.4,3.8,1.2l0.9,6l-3.3,0.4L979,309c-0.5-0.2-1.1-0.3-1.7-0.3c-1.1,0-2,0.5-2.7,1.4
			c-0.7,0.9-1.1,2.1-1.1,3.6v10.1h4.6v3.3h-12.3v-3.3h3.5v-14.9h-3.6v-3.3h7.5v3.9c0.4-1.2,1.1-2.2,1.9-3
			C976,305.6,977.1,305.2,978.4,305.2z"/>
		<path d="M1008,316.3c0,3.3-1,6-3,8.1s-4.7,3.1-8,3.1c-3.3,0-5.8-1-7.8-3c-1.9-2-2.9-4.7-2.9-8c0-3.1,0.9-5.8,2.7-8.1
			c1.8-2.2,4.5-3.4,8.2-3.4s6.3,1.1,8.1,3.3C1007.1,310.6,1008,313.3,1008,316.3z M1003.6,316.2c0-2.4-0.6-4.2-1.8-5.6
			c-1.2-1.4-2.7-2.1-4.7-2.1c-2.1,0-3.7,0.7-4.8,2.2c-1.1,1.5-1.7,3.3-1.7,5.6c0,2.2,0.5,4,1.6,5.5c1.1,1.5,2.7,2.3,4.8,2.3
			c2.1,0,3.7-0.7,4.8-2.2C1003,320.4,1003.6,318.5,1003.6,316.2z"/>
		<path d="M1027.7,321c-0.6,4.4-3,6.5-7.2,6.5c-2.2,0-3.9-0.6-5.2-1.8c-1.2-1.2-1.8-2.9-1.8-5v-11.9h-3.3v-3.2h3.3v-6.8h4.2v6.8h8.2
			v3.2h-8.2V320c0,2.6,1.1,3.8,3.3,3.8c0.7,0,1.4-0.2,2.1-0.7c0.7-0.5,1.2-1.5,1.5-3.2L1027.7,321z"/>
		<path d="M1051,316.3c0,3.3-1,6-3,8.1s-4.7,3.1-8,3.1c-3.3,0-5.8-1-7.8-3s-2.9-4.7-2.9-8c0-3.1,0.9-5.8,2.7-8.1
			c1.8-2.2,4.5-3.4,8.2-3.4s6.3,1.1,8.1,3.3C1050.1,310.6,1051,313.3,1051,316.3z M1046.6,316.2c0-2.4-0.6-4.2-1.8-5.6
			c-1.2-1.4-2.7-2.1-4.7-2.1c-2.1,0-3.7,0.7-4.8,2.2c-1.1,1.5-1.7,3.3-1.7,5.6c0,2.2,0.5,4,1.6,5.5c1.1,1.5,2.7,2.3,4.8,2.3
			c2.1,0,3.7-0.7,4.8-2.2C1046,320.4,1046.6,318.5,1046.6,316.2z"/>
		<path d="M1073.4,319.6c-0.3,1.9-1.1,3.7-2.5,5.4c-1.4,1.7-3.7,2.5-6.8,2.5c-3,0-5.4-0.9-7.3-2.8s-2.8-4.6-2.8-8
			c0-3.2,0.9-6,2.7-8.2c1.8-2.2,4.4-3.3,7.6-3.3c1.3,0,2.6,0.2,3.9,0.5c1.2,0.3,2.4,0.9,3.6,1.7l0.9,5.6l-3.4,0.4l-0.8-3.6
			c-1.2-0.7-2.6-1.1-4.2-1.1c-2,0-3.5,0.7-4.5,2.2c-1,1.5-1.4,3.3-1.4,5.6c0,2.4,0.5,4.3,1.5,5.6c1,1.3,2.5,2,4.5,2
			c3,0,4.8-1.7,5.3-5.2L1073.4,319.6z"/>
		<path d="M1098,316.3c0,3.3-1,6-3,8.1s-4.7,3.1-8,3.1c-3.3,0-5.8-1-7.8-3s-2.9-4.7-2.9-8c0-3.1,0.9-5.8,2.7-8.1
			c1.8-2.2,4.5-3.4,8.2-3.4s6.3,1.1,8.1,3.3C1097.1,310.6,1098,313.3,1098,316.3z M1093.6,316.2c0-2.4-0.6-4.2-1.8-5.6
			c-1.2-1.4-2.7-2.1-4.7-2.1c-2.1,0-3.7,0.7-4.8,2.2c-1.1,1.5-1.7,3.3-1.7,5.6c0,2.2,0.5,4,1.6,5.5c1.1,1.5,2.7,2.3,4.8,2.3
			c2.1,0,3.7-0.7,4.8-2.2C1093,320.4,1093.6,318.5,1093.6,316.2z"/>
		<path d="M1111.7,327h-11.1v-3.3h3.5v-26.4h-3.6V294h7.8v29.8h3.5V327z"/>
		<path d="M1149.6,305.5c0,3.4-1,5.9-3.1,7.6c-2.1,1.7-4.6,2.6-7.7,2.6h-5.7v7.5h5.2v3.8H1125v-3.8h3.8v-23.6h-3.8v-3.8h13.6
			c3.9,0,6.7,0.9,8.4,2.8S1149.6,302.8,1149.6,305.5z M1145,305.6c0-1.9-0.5-3.3-1.6-4.4s-2.8-1.6-5.3-1.6h-4.9V312h5
			C1142.7,312,1145,309.8,1145,305.6z"/>
		<path d="M1171.2,320.7c-0.2,1.9-1.1,3.5-2.7,4.8c-1.6,1.3-3.8,2-6.5,2c-3.1,0-5.6-0.9-7.5-2.8c-1.9-1.9-2.9-4.5-2.9-8.1
			c0-3.3,0.9-6.1,2.7-8.3c1.8-2.2,4.3-3.3,7.4-3.3c2.9,0,5.2,0.9,6.9,2.7c1.6,1.8,2.5,4,2.5,6.6c0,0.9-0.1,1.8-0.3,2.7H1156
			c0.2,4.5,2.3,6.8,6.3,6.8c1.7,0,2.9-0.4,3.8-1.2s1.4-1.8,1.7-2.9L1171.2,320.7z M1166.7,314.4c0.1-1.4-0.2-2.8-1-4.1
			c-0.8-1.3-2.2-1.9-4.1-1.9c-1.8,0-3.1,0.6-4,1.8c-0.9,1.2-1.4,2.6-1.6,4.2H1166.7z"/>
		<path d="M1186.8,305.2c1.5,0,2.8,0.4,3.8,1.2l0.9,6l-3.3,0.4l-0.8-3.7c-0.5-0.2-1.1-0.3-1.7-0.3c-1.1,0-2,0.5-2.7,1.4
			s-1.1,2.1-1.1,3.6v10.1h4.6v3.3h-12.3v-3.3h3.5v-14.9h-3.6v-3.3h7.5v3.9c0.4-1.2,1.1-2.2,1.9-3
			C1184.4,305.6,1185.5,305.2,1186.8,305.2z"/>
		<path d="M1205.7,293.5c1,0,1.9,0.1,2.9,0.3c0.9,0.2,1.8,0.7,2.6,1.3l0.9,5.2l-3.4,0.4l-0.9-3.6c-0.7-0.2-1.4-0.3-2.3-0.3
			c-2.3,0-3.4,1.5-3.4,4.4v4.3h5.5v3.2h-5.5v15h4.5v3.3h-12.2v-3.3h3.5v-15h-3v-3.2h3v-3.8c0-2.4,0.7-4.4,2.2-6
			C1201.6,294.3,1203.5,293.5,1205.7,293.5z"/>
		<path d="M1231.8,316.3c0,3.3-1,6-3,8.1s-4.7,3.1-8,3.1c-3.3,0-5.8-1-7.8-3s-2.9-4.7-2.9-8c0-3.1,0.9-5.8,2.7-8.1
			c1.8-2.2,4.5-3.4,8.2-3.4s6.3,1.1,8.1,3.3C1230.9,310.6,1231.8,313.3,1231.8,316.3z M1227.3,316.2c0-2.4-0.6-4.2-1.8-5.6
			c-1.2-1.4-2.7-2.1-4.7-2.1c-2.1,0-3.7,0.7-4.8,2.2c-1.1,1.5-1.7,3.3-1.7,5.6c0,2.2,0.5,4,1.6,5.5c1.1,1.5,2.7,2.3,4.8,2.3
			c2.1,0,3.7-0.7,4.8-2.2C1226.8,320.4,1227.3,318.5,1227.3,316.2z"/>
		<path d="M1247.3,305.2c1.5,0,2.8,0.4,3.8,1.2l0.9,6l-3.3,0.4l-0.8-3.7c-0.5-0.2-1.1-0.3-1.7-0.3c-1.1,0-2,0.5-2.7,1.4
			s-1.1,2.1-1.1,3.6v10.1h4.6v3.3h-12.3v-3.3h3.5v-14.9h-3.6v-3.3h7.5v3.9c0.4-1.2,1.1-2.2,1.9-3
			C1244.9,305.6,1246,305.2,1247.3,305.2z"/>
		<path d="M1294.9,327h-9.9v-3.3h2.2v-9.3c0-2.2-0.4-3.7-1.2-4.6c-0.8-0.9-1.9-1.4-3.3-1.4c-1.9,0-3.2,0.7-4.2,2
			c-0.9,1.3-1.4,2.7-1.4,4.1v9.2h3.5v3.3h-9.9v-3.3h2.2v-9.3c0-2.2-0.4-3.8-1.2-4.7c-0.8-0.9-1.9-1.3-3.2-1.3c-1.8,0-3.2,0.7-4.1,2
			s-1.4,2.7-1.4,4v9.3h4v3.3h-11.7v-3.3h3.5v-14.9h-3.5v-3.3h7.7v3.8c0.7-1.2,1.6-2.3,2.7-3c1.2-0.8,2.6-1.2,4.2-1.2
			c1.6,0,3.1,0.4,4.3,1.2s2.1,2.1,2.6,3.8c0.6-1.5,1.6-2.7,2.8-3.6c1.2-0.9,2.8-1.4,4.6-1.4c2,0,3.7,0.6,5.1,1.9
			c1.4,1.3,2.1,3.3,2.1,6v10.7h3.5V327z"/>
		<path d="M1299,307.2c1.3-0.8,2.6-1.3,3.9-1.6c1.3-0.3,2.6-0.5,4.2-0.5c2.4,0,4.4,0.6,5.8,1.8c1.4,1.2,2.1,3,2.1,5.5v9.9
			c0,1.4,0.6,2.1,1.7,2.1c0.4,0,0.9-0.1,1.3-0.2l0,2.5c-0.9,0.5-1.9,0.8-3.1,0.8c-2.6,0-4-1.4-4.1-4.3v0c-0.6,1.1-1.6,2.1-2.8,3
			s-2.7,1.3-4.4,1.3c-1.5,0-2.9-0.4-4.4-1.3c-1.5-0.9-2.2-2.5-2.2-4.7c0-2.7,1.1-4.5,3.2-5.3c2.1-0.8,4.4-1.3,6.8-1.3
			c1.5,0,2.7,0.1,3.7,0.2v-1.6c0-1.4-0.3-2.6-0.8-3.6s-1.8-1.5-3.6-1.5c-1.5,0-2.8,0.3-3.9,0.8l-0.8,3.5l-3.4-0.4L1299,307.2z
			 M1310.8,318.7v-1.2c-0.6-0.1-1.2-0.1-1.8-0.2s-1.3-0.1-1.9-0.1c-1.5,0-2.8,0.2-3.9,0.7c-1.2,0.5-1.7,1.5-1.7,3
			c0,1.2,0.4,2,1.1,2.5c0.7,0.5,1.5,0.8,2.5,0.8c1.4,0,2.7-0.5,3.8-1.4C1310,321.8,1310.6,320.5,1310.8,318.7z"/>
		<path d="M1346.1,327H1335v-3.3h3.5v-9.3c0-2.2-0.4-3.7-1.2-4.6s-1.9-1.4-3.3-1.4c-1.8,0-3.2,0.6-4.3,1.8c-1.1,1.2-1.6,2.6-1.7,4.1
			v9.4h3.5v3.3h-11.1v-3.3h3.5v-14.9h-3.6v-3.3h7.8v3.6c1.5-2.7,3.9-4.1,7.3-4.1c2.1,0,3.8,0.6,5.3,1.9c1.4,1.3,2.2,3.3,2.2,6v10.7
			h3.5V327z"/>
		<path d="M1367.5,319.6c-0.3,1.9-1.1,3.7-2.5,5.4c-1.4,1.7-3.7,2.5-6.8,2.5c-3,0-5.4-0.9-7.3-2.8s-2.8-4.6-2.8-8
			c0-3.2,0.9-6,2.7-8.2c1.8-2.2,4.4-3.3,7.6-3.3c1.3,0,2.6,0.2,3.9,0.5c1.2,0.3,2.4,0.9,3.6,1.7l0.9,5.6l-3.4,0.4l-0.8-3.6
			c-1.2-0.7-2.6-1.1-4.2-1.1c-2,0-3.5,0.7-4.5,2.2c-1,1.5-1.4,3.3-1.4,5.6c0,2.4,0.5,4.3,1.5,5.6c1,1.3,2.5,2,4.5,2
			c3,0,4.8-1.7,5.3-5.2L1367.5,319.6z"/>
		<path d="M1390.1,320.7c-0.2,1.9-1.1,3.5-2.7,4.8c-1.6,1.3-3.8,2-6.5,2c-3.1,0-5.6-0.9-7.5-2.8c-1.9-1.9-2.9-4.5-2.9-8.1
			c0-3.3,0.9-6.1,2.7-8.3c1.8-2.2,4.3-3.3,7.4-3.3c2.9,0,5.2,0.9,6.9,2.7c1.6,1.8,2.5,4,2.5,6.6c0,0.9-0.1,1.8-0.3,2.7h-14.8
			c0.2,4.5,2.3,6.8,6.3,6.8c1.7,0,2.9-0.4,3.8-1.2s1.4-1.8,1.7-2.9L1390.1,320.7z M1385.6,314.4c0.1-1.4-0.2-2.8-1-4.1
			c-0.8-1.3-2.2-1.9-4.1-1.9c-1.8,0-3.1,0.6-4,1.8c-0.9,1.2-1.4,2.6-1.6,4.2H1385.6z"/>
		<path d="M1429.6,318c0,2.5-0.9,4.6-2.6,6.4c-1.7,1.7-4.4,2.6-7.8,2.6H1404v-3.8h3.8v-23.6h-3.8v-3.8h14.9c3.1,0,5.4,0.7,7,2
			c1.6,1.4,2.4,3.2,2.4,5.4c0,1.7-0.5,3.1-1.5,4.3c-1,1.2-2.3,2-3.9,2.3v0.2c2.2,0.3,3.9,1.2,5,2.7
			C1429,314.3,1429.6,316,1429.6,318z M1423.7,304.3c0-1.8-0.5-3-1.5-3.7c-1-0.7-2.4-1-4.1-1h-5.9v9.6h5.6
			C1421.7,309.2,1423.7,307.6,1423.7,304.3z M1424.9,317.8c0-3.4-1.9-5.1-5.8-5.1h-7v10.5h6c2.1,0,3.7-0.4,4.9-1.3
			C1424.3,321.1,1424.9,319.7,1424.9,317.8z"/>
		<path d="M1452.5,320.7c-0.2,1.9-1.1,3.5-2.7,4.8c-1.6,1.3-3.8,2-6.5,2c-3.1,0-5.6-0.9-7.5-2.8c-1.9-1.9-2.9-4.5-2.9-8.1
			c0-3.3,0.9-6.1,2.7-8.3c1.8-2.2,4.3-3.3,7.4-3.3c2.9,0,5.2,0.9,6.9,2.7c1.6,1.8,2.5,4,2.5,6.6c0,0.9-0.1,1.8-0.3,2.7h-14.8
			c0.2,4.5,2.3,6.8,6.3,6.8c1.7,0,2.9-0.4,3.8-1.2s1.4-1.8,1.7-2.9L1452.5,320.7z M1447.9,314.4c0.1-1.4-0.2-2.8-1-4.1
			c-0.8-1.3-2.2-1.9-4.1-1.9c-1.8,0-3.1,0.6-4,1.8c-0.9,1.2-1.4,2.6-1.6,4.2H1447.9z"/>
		<path d="M1481.3,327h-11.1v-3.3h3.5v-9.3c0-2.2-0.4-3.7-1.2-4.6s-1.9-1.4-3.3-1.4c-1.8,0-3.2,0.6-4.3,1.8
			c-1.1,1.2-1.6,2.6-1.7,4.1v9.4h3.5v3.3h-11.1v-3.3h3.5v-14.9h-3.6v-3.3h7.8v3.6c1.5-2.7,3.9-4.1,7.3-4.1c2.1,0,3.8,0.6,5.3,1.9
			c1.4,1.3,2.2,3.3,2.2,6v10.7h3.5V327z"/>
		<path d="M1502.7,319.6c-0.3,1.9-1.1,3.7-2.5,5.4c-1.4,1.7-3.7,2.5-6.8,2.5c-3,0-5.4-0.9-7.3-2.8s-2.8-4.6-2.8-8
			c0-3.2,0.9-6,2.7-8.2c1.8-2.2,4.4-3.3,7.6-3.3c1.3,0,2.6,0.2,3.9,0.5c1.2,0.3,2.4,0.9,3.6,1.7l0.9,5.6l-3.4,0.4l-0.8-3.6
			c-1.2-0.7-2.6-1.1-4.2-1.1c-2,0-3.5,0.7-4.5,2.2c-1,1.5-1.4,3.3-1.4,5.6c0,2.4,0.5,4.3,1.5,5.6c1,1.3,2.5,2,4.5,2
			c3,0,4.8-1.7,5.3-5.2L1502.7,319.6z"/>
		<path d="M1530.7,327h-11.2v-3.3h3.5v-9.3c0-2.2-0.4-3.7-1.3-4.6s-2-1.4-3.4-1.4c-1.7,0-3.1,0.6-4.2,1.8c-1.1,1.2-1.6,2.5-1.7,4
			v9.5h3.5v3.3h-11.1v-3.3h3.5v-26.4h-3.5V294h7.6v15.3c1.6-2.8,4-4.1,7.3-4.1c2.1,0,3.8,0.6,5.3,1.9c1.4,1.3,2.2,3.3,2.2,6v10.7
			h3.5V327z"/>
		<path d="M1572.4,327h-9.9v-3.3h2.2v-9.3c0-2.2-0.4-3.7-1.2-4.6c-0.8-0.9-1.9-1.4-3.3-1.4c-1.9,0-3.2,0.7-4.2,2
			c-0.9,1.3-1.4,2.7-1.4,4.1v9.2h3.5v3.3h-9.9v-3.3h2.2v-9.3c0-2.2-0.4-3.8-1.2-4.7c-0.8-0.9-1.9-1.3-3.2-1.3c-1.8,0-3.2,0.7-4.1,2
			s-1.4,2.7-1.4,4v9.3h4v3.3h-11.7v-3.3h3.5v-14.9h-3.5v-3.3h7.7v3.8c0.7-1.2,1.6-2.3,2.7-3c1.2-0.8,2.6-1.2,4.2-1.2
			c1.6,0,3.1,0.4,4.3,1.2s2.1,2.1,2.6,3.8c0.6-1.5,1.6-2.7,2.8-3.6c1.2-0.9,2.8-1.4,4.6-1.4c2,0,3.7,0.6,5.1,1.9
			c1.4,1.3,2.1,3.3,2.1,6v10.7h3.5V327z"/>
		<path d="M1576.5,307.2c1.3-0.8,2.6-1.3,3.9-1.6c1.3-0.3,2.6-0.5,4.2-0.5c2.4,0,4.4,0.6,5.8,1.8c1.4,1.2,2.1,3,2.1,5.5v9.9
			c0,1.4,0.6,2.1,1.7,2.1c0.4,0,0.9-0.1,1.3-0.2l0,2.5c-0.9,0.5-1.9,0.8-3.1,0.8c-2.6,0-4-1.4-4.1-4.3v0c-0.6,1.1-1.6,2.1-2.8,3
			s-2.7,1.3-4.4,1.3c-1.5,0-2.9-0.4-4.4-1.3c-1.5-0.9-2.2-2.5-2.2-4.7c0-2.7,1.1-4.5,3.2-5.3c2.1-0.8,4.4-1.3,6.8-1.3
			c1.5,0,2.7,0.1,3.7,0.2v-1.6c0-1.4-0.3-2.6-0.8-3.6s-1.8-1.5-3.6-1.5c-1.5,0-2.8,0.3-3.9,0.8l-0.8,3.5l-3.4-0.4L1576.5,307.2z
			 M1588.2,318.7v-1.2c-0.6-0.1-1.2-0.1-1.8-0.2s-1.3-0.1-1.9-0.1c-1.5,0-2.8,0.2-3.9,0.7c-1.2,0.5-1.7,1.5-1.7,3
			c0,1.2,0.4,2,1.1,2.5c0.7,0.5,1.5,0.8,2.5,0.8c1.4,0,2.7-0.5,3.8-1.4C1587.5,321.8,1588.1,320.5,1588.2,318.7z"/>
		<path d="M1610.4,305.2c1.5,0,2.8,0.4,3.8,1.2l0.9,6l-3.3,0.4l-0.8-3.7c-0.5-0.2-1.1-0.3-1.7-0.3c-1.1,0-2,0.5-2.7,1.4
			s-1.1,2.1-1.1,3.6v10.1h4.6v3.3h-12.3v-3.3h3.5v-14.9h-3.6v-3.3h7.5v3.9c0.4-1.2,1.1-2.2,1.9-3
			C1608,305.6,1609.1,305.2,1610.4,305.2z"/>
		<path d="M1641.3,327h-10.4v-3.3h2.9l-5.2-6.4h-3.6v6.4h2.8v3.3h-10.4v-3.3h3.5v-26.4h-3.6V294h7.8v20.3h3.8l4.4-5.4h-3.1v-3.3
			h10.2v3.3h-3l-5.4,6.5l6.8,8.4h2.7V327z"/>
		<path d="M1661.4,320.7c0,2.1-0.9,3.8-2.7,5c-1.8,1.2-4,1.8-6.7,1.8c-3.3,0-6.1-0.7-8.4-2.1l0.7-5.2l3.3,0.3l-0.1,2.8
			c0.6,0.3,1.3,0.5,2.1,0.7c0.8,0.1,1.5,0.2,2.2,0.2c1.4,0,2.6-0.3,3.7-0.8c1.1-0.5,1.7-1.3,1.7-2.4c0-1.1-0.4-1.8-1.3-2.2
			c-0.9-0.4-2-0.8-3.3-1s-2.6-0.5-4-0.8s-2.4-0.9-3.3-1.7c-0.9-0.8-1.3-2.1-1.3-3.7c0-2.4,0.9-4.1,2.7-5c1.8-0.9,3.7-1.4,5.7-1.4
			c1.5,0,2.9,0.2,4.2,0.6c1.3,0.4,2.5,0.8,3.5,1.4l0.5,5.2l-3.4,0.4l-0.5-3.4c-1.3-0.6-2.7-0.9-4.1-0.9c-1.2,0-2.2,0.2-2.9,0.7
			c-0.8,0.4-1.2,1.2-1.2,2.2c0,1,0.4,1.7,1.3,2.1c0.9,0.4,2,0.7,3.3,0.9c1.3,0.2,2.6,0.5,3.9,0.8c1.3,0.4,2.4,0.9,3.3,1.8
			C1661,317.8,1661.4,319,1661.4,320.7z"/>
	</g>
	<g>
		<path d="M570.4,189.5h-6.7V241l-7.2,0.1l-33.5-39.6h-0.4v28.6h8.6V241h-27.4v-10.9h6.7v-40.5h-7.8v-10.9h17l31.5,37.1h0.4v-26.1
			h-9v-10.9h27.7V189.5z"/>
		<path d="M615,227.4c-0.3,3.8-2.2,7.2-5.7,10.2c-3.5,2.9-8.3,4.4-14.5,4.4c-6.5,0-11.8-1.8-16-5.5c-4.2-3.6-6.3-9.1-6.3-16.3
			c0-6.7,1.9-12.2,5.7-16.7c3.8-4.4,9.1-6.7,16-6.7c6,0,10.9,1.7,14.6,5.2s5.6,8,5.7,13.6c0,2.1-0.2,4.2-0.7,6.2h-28.4
			c0.7,6.8,4.1,10.3,10.2,10.3c3.3,0,5.6-0.8,6.8-2.4c1.2-1.6,1.9-3,2.2-4.3L615,227.4z M601.9,214.7c0.3-2.2-0.2-4.2-1.4-6.1
			c-1.2-1.9-3.2-2.9-6.2-2.9c-2.6,0-4.5,0.8-6,2.5c-1.4,1.7-2.3,3.8-2.7,6.5H601.9z"/>
		<path d="M655.9,227.6c-0.6,5-2.4,8.6-5.2,10.9c-2.8,2.3-6.5,3.5-10.9,3.5c-4.8,0-8.7-1.2-11.7-3.6s-4.5-5.8-4.5-10.3v-21.5h-6.1
			v-8.8h6.1v-13.2H636v13.2h15.6v8.8H636v19.4c0,3.8,1.7,5.7,5.2,5.7c0.8,0,1.8-0.3,3.1-1c1.3-0.7,2.2-2.6,2.5-5.8L655.9,227.6z"/>
		<path d="M726.8,207h-3.9l-11.7,34h-9.2l-11.2-25.9h-0.6L679.9,241h-8.7l-12-34h-3.9v-9.3h23v9.3h-6l5.3,16.9h0.6l10.2-26.2h7.4
			l11.8,25.8h0.6l3.6-16.5H706v-9.3h20.7V207z"/>
		<path d="M774.6,219.4c0,6.8-2.2,12.3-6.7,16.4c-4.5,4.1-10.2,6.1-17.1,6.1c-6.7,0-12.1-1.9-16.3-5.8c-4.2-3.9-6.3-9.3-6.3-16.3
			c0-6.3,1.9-11.8,5.8-16.3c3.8-4.5,9.7-6.8,17.5-6.8c7.8,0,13.6,2.3,17.4,6.8C772.7,208,774.6,213.3,774.6,219.4z M761.8,219
			c0-4.4-1-7.6-3.1-9.7c-2-2-4.5-3.1-7.5-3.1c-3.2,0-5.7,1.1-7.5,3.4c-1.8,2.3-2.7,5.5-2.7,9.6c0,3.7,0.8,6.8,2.5,9.4
			c1.7,2.6,4.2,3.8,7.6,3.8c3.2,0,5.8-1.2,7.7-3.6C760.8,226.5,761.8,223.2,761.8,219z"/>
		<path d="M806.6,197.1c1.2,0,2.6,0.2,4.1,0.5c1.5,0.4,3,1,4.5,1.9l1.9,15.2l-9.4,1.1l-1.6-7.4c-1.3-0.8-2.4-1.2-3.4-1.2
			c-1.4,0-2.6,0.5-3.7,1.6c-1.1,1.1-1.6,2.7-1.6,4.8v18h7.7v9.3h-25.8v-9.3h5.8v-24.6h-6.2v-9.4h17.7v8.3c0.7-2.5,1.8-4.6,3.4-6.3
			C801.4,198,803.7,197.1,806.6,197.1z"/>
		<path d="M869.9,241h-22.2v-9.3h4l-7.5-8.5h-6.4v8.5h3.9v9.3h-22.1v-9.3h5.8v-47.3h-6.2V175h18.6v39.5h7.2l6.3-7.3h-5.2v-9.4h21.7
			v9.4h-4.7l-9.3,10.6l12.3,14h3.7V241z"/>
		<path d="M945.2,199c0,7.1-2.3,12.4-7,15.9c-4.6,3.5-10,5.2-16.2,5.2h-9.6v10h9.6V241h-29.2v-10.9h6.7v-40.5h-6.7v-10.9h28.6
			c7.7,0,13.6,1.8,17.7,5.5C943.2,187.7,945.2,192.7,945.2,199z M931.4,199.1c0-3.1-0.8-5.4-2.5-7.1c-1.7-1.7-4.7-2.5-9-2.5h-7.4
			v19.7h7.2c4.4,0,7.5-0.9,9.2-2.8C930.6,204.6,931.4,202.2,931.4,199.1z"/>
		<path d="M976.7,197.1c1.2,0,2.6,0.2,4.1,0.5c1.5,0.4,3,1,4.5,1.9l1.9,15.2l-9.4,1.1l-1.6-7.4c-1.3-0.8-2.4-1.2-3.4-1.2
			c-1.4,0-2.6,0.5-3.7,1.6c-1.1,1.1-1.6,2.7-1.6,4.8v18h7.7v9.3h-25.8v-9.3h5.8v-24.6h-6.2v-9.4h17.7v8.3c0.7-2.5,1.8-4.6,3.4-6.3
			C971.5,198,973.8,197.1,976.7,197.1z"/>
		<path d="M1037.2,219.4c0,6.8-2.2,12.3-6.7,16.4c-4.5,4.1-10.2,6.1-17.1,6.1c-6.7,0-12.1-1.9-16.3-5.8c-4.2-3.9-6.3-9.3-6.3-16.3
			c0-6.3,1.9-11.8,5.8-16.3c3.8-4.5,9.7-6.8,17.5-6.8c7.8,0,13.6,2.3,17.4,6.8C1035.3,208,1037.2,213.3,1037.2,219.4z M1024.4,219
			c0-4.4-1-7.6-3.1-9.7c-2-2-4.5-3.1-7.5-3.1c-3.2,0-5.7,1.1-7.5,3.4c-1.8,2.3-2.7,5.5-2.7,9.6c0,3.7,0.8,6.8,2.5,9.4
			c1.7,2.6,4.2,3.8,7.6,3.8c3.2,0,5.8-1.2,7.7-3.6C1023.5,226.5,1024.4,223.2,1024.4,219z"/>
		<path d="M1078.1,227.6c-0.6,5-2.4,8.6-5.2,10.9c-2.8,2.3-6.5,3.5-10.9,3.5c-4.8,0-8.7-1.2-11.7-3.6c-3-2.4-4.5-5.8-4.5-10.3v-21.5
			h-6.1v-8.8h6.1v-13.2h12.4v13.2h15.6v8.8h-15.6v19.4c0,3.8,1.7,5.7,5.2,5.7c0.8,0,1.8-0.3,3.1-1c1.3-0.7,2.2-2.6,2.5-5.8
			L1078.1,227.6z"/>
		<path d="M1125.6,219.4c0,6.8-2.2,12.3-6.7,16.4c-4.5,4.1-10.2,6.1-17.1,6.1c-6.7,0-12.1-1.9-16.3-5.8c-4.2-3.9-6.3-9.3-6.3-16.3
			c0-6.3,1.9-11.8,5.8-16.3c3.8-4.5,9.7-6.8,17.5-6.8c7.8,0,13.6,2.3,17.4,6.8C1123.7,208,1125.6,213.3,1125.6,219.4z M1112.9,219
			c0-4.4-1-7.6-3.1-9.7c-2-2-4.5-3.1-7.5-3.1c-3.2,0-5.7,1.1-7.5,3.4c-1.8,2.3-2.7,5.5-2.7,9.6c0,3.7,0.8,6.8,2.5,9.4
			c1.7,2.6,4.2,3.8,7.6,3.8c3.2,0,5.8-1.2,7.7-3.6C1111.9,226.5,1112.9,223.2,1112.9,219z"/>
		<path d="M1171.2,224.9c-0.4,4-2.2,7.8-5.1,11.5c-3,3.7-8,5.6-14.9,5.6c-6.3,0-11.4-1.8-15.5-5.5c-4.1-3.6-6.1-9.1-6.1-16.4
			c0-7.7,2.2-13.5,6.6-17.4c4.4-3.9,9.8-5.9,16-5.9c2.4,0,4.9,0.3,7.6,0.9c2.7,0.6,5.4,1.6,8,3l1.9,13.2l-9.9,1.1l-1.4-7.1
			c-2.5-0.8-4.7-1.2-6.5-1.2c-2.6,0-4.9,1-6.7,3c-1.9,2-2.8,5.3-2.8,9.8c0,8.4,3.3,12.7,9.9,12.7c4.9,0,7.7-3.1,8.5-9.2
			L1171.2,224.9z"/>
		<path d="M1221.1,219.4c0,6.8-2.2,12.3-6.7,16.4c-4.5,4.1-10.2,6.1-17.1,6.1c-6.7,0-12.1-1.9-16.3-5.8c-4.2-3.9-6.3-9.3-6.3-16.3
			c0-6.3,1.9-11.8,5.8-16.3c3.8-4.5,9.7-6.8,17.5-6.8c7.8,0,13.6,2.3,17.4,6.8C1219.1,208,1221.1,213.3,1221.1,219.4z M1208.3,219
			c0-4.4-1-7.6-3.1-9.7c-2-2-4.5-3.1-7.5-3.1c-3.2,0-5.7,1.1-7.5,3.4c-1.8,2.3-2.7,5.5-2.7,9.6c0,3.7,0.8,6.8,2.5,9.4
			c1.7,2.6,4.2,3.8,7.6,3.8c3.2,0,5.8-1.2,7.7-3.6C1207.3,226.5,1208.3,223.2,1208.3,219z"/>
		<path d="M1248.6,241h-23.9v-9.3h5.8v-47.3h-6.2V175h18.6v56.7h5.8V241z"/>
		<path d="M1325.7,222.5c0,5-1.7,9.3-5,13c-3.4,3.7-8.6,5.5-15.8,5.5H1272v-10.9h6.7v-40.5h-6.7v-10.9h32.4c5.7,0,10.3,1.3,13.8,4
			c3.5,2.7,5.2,6.2,5.2,10.6c0,3.3-1,6.1-3,8.5c-2,2.4-4.8,3.9-8.4,4.5v0.4c4.5,0.6,7.9,2.4,10.1,5.3
			C1324.6,214.8,1325.7,218.3,1325.7,222.5z M1309.7,196.6c0-2.8-0.8-4.7-2.5-5.6c-1.7-0.9-3.7-1.4-6-1.4h-9.5v14.6h8.5
			c3.6,0,6.1-0.7,7.5-2.2C1309,200.5,1309.7,198.7,1309.7,196.6z M1311.9,222c0-5.2-3.2-7.9-9.5-7.9h-10.8v15.9h9.9
			C1308.4,230.1,1311.9,227.4,1311.9,222z"/>
		<path d="M1372.4,227.4c-0.3,3.8-2.2,7.2-5.7,10.2c-3.5,2.9-8.3,4.4-14.5,4.4c-6.5,0-11.8-1.8-16-5.5c-4.2-3.6-6.3-9.1-6.3-16.3
			c0-6.7,1.9-12.2,5.7-16.7c3.8-4.4,9.1-6.7,16-6.7c6,0,10.9,1.7,14.6,5.2c3.7,3.5,5.6,8,5.7,13.6c0,2.1-0.2,4.2-0.7,6.2H1343
			c0.7,6.8,4.1,10.3,10.2,10.3c3.3,0,5.6-0.8,6.8-2.4c1.2-1.6,1.9-3,2.2-4.3L1372.4,227.4z M1359.3,214.7c0.3-2.2-0.2-4.2-1.4-6.1
			c-1.2-1.9-3.2-2.9-6.2-2.9c-2.6,0-4.5,0.8-6,2.5c-1.4,1.7-2.3,3.8-2.7,6.5H1359.3z"/>
		<path d="M1430.1,241h-23.9v-9.3h5.8v-15.1c0-3.7-0.6-6.4-1.9-8c-1.2-1.6-3.1-2.4-5.5-2.4c-2.9,0-5.2,0.9-6.8,2.7
			c-1.6,1.8-2.4,4.2-2.5,7.2v15.6h5.8v9.3h-23.9v-9.3h5.8v-24.6h-6.2v-9.4h18.6v6.6c2.9-5,7.5-7.5,13.9-7.5c4.1,0,7.6,1.2,10.7,3.6
			c3,2.4,4.5,6.2,4.5,11.3v19.9h5.8V241z"/>
		<path d="M1475,224.9c-0.4,4-2.2,7.8-5.1,11.5c-3,3.7-8,5.6-14.9,5.6c-6.3,0-11.4-1.8-15.5-5.5c-4.1-3.6-6.1-9.1-6.1-16.4
			c0-7.7,2.2-13.5,6.6-17.4c4.4-3.9,9.8-5.9,16-5.9c2.4,0,4.9,0.3,7.6,0.9c2.7,0.6,5.4,1.6,8,3l1.9,13.2l-9.9,1.1l-1.4-7.1
			c-2.5-0.8-4.7-1.2-6.5-1.2c-2.6,0-4.9,1-6.7,3c-1.9,2-2.8,5.3-2.8,9.8c0,8.4,3.3,12.7,9.9,12.7c4.9,0,7.7-3.1,8.5-9.2L1475,224.9z
			"/>
		<path d="M1531,241h-23.9v-9.3h5.8v-15.1c0-3.7-0.7-6.4-2-8c-1.3-1.6-3.2-2.4-5.6-2.4c-2.8,0-5,0.9-6.6,2.6c-1.6,1.7-2.4,4-2.5,6.8
			v16h5.8v9.3H1478v-9.3h5.8v-47.3h-5.8V175h18.1v29.4c2.9-5,7.5-7.5,13.9-7.5c4.1,0,7.6,1.2,10.7,3.6c3,2.4,4.5,6.2,4.5,11.3v19.9
			h5.8V241z"/>
		<path d="M1615.2,241h-18.1v-24.4c0-3.7-0.6-6.4-1.9-8c-1.2-1.6-3.1-2.4-5.5-2.4c-2.9,0-5.1,1-6.4,2.9c-1.3,1.9-2,4.4-2,7.4v15.2
			h5.8v9.3h-18.1v-24.4c0-3.7-0.6-6.4-1.9-8c-1.2-1.6-3.1-2.4-5.5-2.4c-3,0-5.2,1-6.4,2.9s-1.9,4.4-1.9,7.4v15.2h8.3v9.3h-26.4v-9.3
			h5.8v-24.6h-5.7v-9.4h18v6.5c2.8-4.9,7.1-7.4,13.2-7.4c3.1,0,6,0.8,8.6,2.3c2.6,1.5,4.4,3.9,5.5,7c2.6-6.2,7.3-9.3,14.1-9.3
			c3.9,0,7.4,1.2,10.4,3.6c3,2.4,4.5,6.2,4.5,11.3v19.9h5.8V241z"/>
		<path d="M1622.9,200.8c3.8-1.5,6.9-2.6,9.5-3.1c2.5-0.5,5.6-0.8,9.1-0.8c4.7,0,8.7,1.2,12.1,3.6c3.4,2.4,5.1,6.1,5.1,11v18.8
			c0,2.2,1,3.4,3,3.4c0.6,0,1.2-0.1,1.8-0.3l0.1,6.5c-2.5,1.3-5.1,2-7.8,2c-5.7,0-8.9-2.8-9.5-8.5v-0.1c-1.2,2.2-3,4.2-5.2,6
			c-2.3,1.8-5.2,2.7-8.7,2.7c-3.1,0-6.1-0.9-9-2.8c-2.9-1.9-4.3-5.1-4.3-9.6c0-5.3,2.1-8.8,6.4-10.6c4.3-1.7,8.8-2.6,13.8-2.6
			c2.8,0,5.1,0.1,7.1,0.4v-1.4c0-2.2-0.3-4.4-0.9-6.5c-0.6-2.1-2.7-3.2-6.2-3.2c-1.3,0-2.4,0.1-3.5,0.2c-1.1,0.2-2.1,0.5-3.1,1
			l-1.6,6.1l-9.9-1.1L1622.9,200.8z M1646.2,223.3v-0.6c-1-0.1-2.1-0.3-3.1-0.4c-1.1-0.1-2.1-0.2-3.1-0.2c-2.2,0-4.1,0.4-5.8,1.2
			c-1.7,0.8-2.5,2.4-2.5,4.8c0,1.4,0.4,2.6,1.2,3.6c0.8,1,2.1,1.4,3.9,1.4c2.2,0,4.2-0.8,6.1-2.4
			C1644.8,229.2,1645.9,226.7,1646.2,223.3z"/>
		<path d="M1695.1,197.1c1.2,0,2.6,0.2,4.1,0.5c1.5,0.4,3,1,4.5,1.9l1.9,15.2l-9.4,1.1l-1.6-7.4c-1.3-0.8-2.4-1.2-3.4-1.2
			c-1.4,0-2.6,0.5-3.7,1.6c-1.1,1.1-1.6,2.7-1.6,4.8v18h7.7v9.3h-25.8v-9.3h5.8v-24.6h-6.2v-9.4h17.7v8.3c0.7-2.5,1.8-4.6,3.4-6.3
			C1689.9,198,1692.1,197.1,1695.1,197.1z"/>
		<path d="M1758.4,241h-22.2v-9.3h4l-7.5-8.5h-6.4v8.5h3.9v9.3h-22.1v-9.3h5.8v-47.3h-6.2V175h18.6v39.5h7.2l6.3-7.3h-5.2v-9.4h21.7
			v9.4h-4.7l-9.3,10.6l12.3,14h3.7V241z"/>
		<path d="M1801.5,227.8c0,4.8-1.9,8.4-5.7,10.7c-3.8,2.3-8.8,3.5-14.8,3.5c-3.1,0-6.3-0.3-9.5-1c-3.2-0.7-6.2-1.7-9.1-3.2l1.7-12.1
			l9.6,1.1v5.4c1.2,0.4,2.4,0.6,3.6,0.7c1.3,0.1,2.2,0.1,2.9,0.1c2.4,0,4.4-0.4,6.1-1.2c1.7-0.8,2.6-1.9,2.6-3.5
			c0-1.9-1.3-3.1-3.9-3.6c-2.6-0.6-5.7-1.2-9.1-1.7c-3.5-0.6-6.5-1.8-9.1-3.6c-2.6-1.8-3.9-4.8-3.9-9.1c0-5.3,2.1-8.9,6.2-10.7
			c4.1-1.8,8.4-2.7,12.8-2.7c5.8,0,11.2,1.3,16.2,3.9l1.1,11l-9.6,1.1l-0.8-6c-2.1-0.7-4.4-1.1-6.8-1.1c-1.6,0-3,0.3-4.1,1
			c-1.1,0.7-1.7,1.7-1.7,3.1c0,1.9,1.3,3.1,3.8,3.7c2.5,0.6,5.5,1.2,8.8,1.8c3.4,0.6,6.3,1.7,8.8,3.5
			C1800.2,220.6,1801.5,223.6,1801.5,227.8z"/>
	</g>
</g>
<g>
	<circle class="st0" cx="335.9" cy="206.8" r="12.7"/>
	<circle class="st1" cx="273.2" cy="268.2" r="12.7"/>
	<circle class="st2" cx="222.9" cy="219.6" r="12.7"/>
	<circle class="st3" cx="173.9" cy="268.2" r="12.7"/>
	<path d="M139.6,274.8c-1.3,0-2.5,0.5-3.5,1.4c-0.9,0.9-1.4,2.2-1.4,3.5s0.5,2.5,1.4,3.5c0.9,0.9,2.2,1.4,3.5,1.4s2.5-0.5,3.5-1.4
		c0.9-0.9,1.4-2.2,1.4-3.5s-0.5-2.5-1.4-3.5C142.2,275.3,140.9,274.8,139.6,274.8z"/>
	<path d="M134.8,260c0,2.7,2.2,4.9,4.9,4.9s4.9-2.2,4.9-4.9v-92l1.4,1.4c1,1,2.2,1.4,3.5,1.4s2.5-0.5,3.5-1.4c1.9-1.9,1.9-5,0-6.9
		l-9.8-9.8c-1.9-1.9-5-1.9-6.9,0l-9.8,9.8c-1.9,1.9-1.9,5,0,6.9c1.9,1.9,5,1.9,6.9,0l1.4-1.4L134.8,260L134.8,260z"/>
	<path d="M373.6,330.5l-9.8-9.8c-1.9-1.9-5-1.9-6.9,0s-1.9,5,0,6.9l1.4,1.4h-17.5v-68.5c0-2.7-2.2-4.9-4.9-4.9
		c-2.7,0-4.9,2.2-4.9,4.9V329h-52.9v-31.2c0-2.7-2.2-4.9-4.9-4.9s-4.9,2.2-4.9,4.9V329h-40.6v-78.4c0-2.7-2.2-4.9-4.9-4.9
		s-4.9,2.2-4.9,4.9V329h-39.2v-30.5c0-2.7-2.2-4.9-4.9-4.9s-4.9,2.2-4.9,4.9V329h-24.5v-28c0-2.7-2.2-4.9-4.9-4.9s-4.9,2.2-4.9,4.9
		v33c0,2.7,2.2,4.9,4.9,4.9h218.7l-1.4,1.4c-1.9,1.9-1.9,5,0,6.9c1,1,2.2,1.4,3.5,1.4c1.2,0,2.5-0.5,3.5-1.4l9.8-9.8
		C375.5,335.5,375.5,332.4,373.6,330.5z"/>
	<path d="M173.9,285.9c9.7,0,17.6-7.9,17.6-17.6c0-3.1-0.8-6-2.2-8.5l24.8-24.8c2.6,1.5,5.6,2.3,8.7,2.3c3.6,0,6.9-1.1,9.7-2.9
		l25.3,25.3c-1.4,2.5-2.2,5.5-2.2,8.6c0,9.7,7.9,17.6,17.6,17.6s17.6-7.9,17.6-17.6c0-3-0.8-5.9-2.1-8.4l37.9-37.9
		c2.7,1.7,5.9,2.6,9.2,2.6c9.7,0,17.6-7.9,17.6-17.6c0-9.7-7.9-17.6-17.6-17.6s-17.6,7.9-17.6,17.6c0,2.8,0.7,5.4,1.8,7.8L281.8,253
		c-2.6-1.4-5.5-2.3-8.6-2.3s-5.9,0.8-8.5,2.2L238.8,227c1-2.2,1.6-4.7,1.6-7.3c0-9.7-7.9-17.6-17.6-17.6c-9.7,0-17.6,7.9-17.6,17.6
		c0,3,0.8,5.8,2.1,8.3l-24.9,24.9c-2.5-1.4-5.4-2.2-8.5-2.2c-9.7,0-17.6,7.9-17.6,17.6C156.3,278,164.2,285.9,173.9,285.9z
		 M335.9,199c4.3,0,7.9,3.5,7.9,7.9c0,4.3-3.5,7.9-7.9,7.9s-7.9-3.5-7.9-7.9C328.1,202.5,331.6,199,335.9,199z M281.1,268.2
		c0,4.3-3.5,7.9-7.9,7.9c-4.3,0-7.9-3.5-7.9-7.9c0-4.3,3.5-7.9,7.9-7.9C277.6,260.3,281.1,263.9,281.1,268.2z M222.9,211.7
		c4.3,0,7.9,3.5,7.9,7.9c0,4.3-3.5,7.9-7.9,7.9s-7.9-3.5-7.9-7.9S218.6,211.7,222.9,211.7z M173.9,260.4c2.1,0,4.1,0.9,5.5,2.2
		c0,0,0,0.1,0.1,0.1l0.1,0.1c1.4,1.4,2.2,3.4,2.2,5.5c0,4.3-3.5,7.9-7.9,7.9c-4.3,0-7.9-3.5-7.9-7.9
		C166.1,263.9,169.6,260.4,173.9,260.4z"/>
	<path d="M332.5,236.8c-0.9,0.9-1.4,2.2-1.4,3.5s0.5,2.5,1.4,3.5c0.9,0.9,2.2,1.4,3.5,1.4s2.5-0.5,3.5-1.4c0.9-0.9,1.4-2.2,1.4-3.5
		s-0.5-2.5-1.4-3.5c-0.9-0.9-2.2-1.4-3.5-1.4S333.4,235.9,332.5,236.8z"/>
</g>
</svg>
